<?xml version="1.0" encoding="utf-8"?>
<!-- Generator: Adobe Illustrator 17.1.0, SVG Export Plug-In . SVG Version: 6.00 Build 0)  -->
<!DOCTYPE svg PUBLIC "-//W3C//DTD SVG 1.1//EN" "http://www.w3.org/Graphics/SVG/1.1/DTD/svg11.dtd">
<svg version="1.1" id="Warstwa_1" xmlns="http://www.w3.org/2000/svg" xmlns:xlink="http://www.w3.org/1999/xlink" x="0px" y="0px"
	 viewBox="0 0 84.7 19" enable-background="new 0 0 84.7 19" xml:space="preserve">
<g>
	<path fill="#FFFFFF" d="M5.6,0H3L2.5,2.3h2.6L5.6,0z M2.3,3.7L0,14.8h2.6L4.8,3.7H2.3z M11.1,3.4c-1,0-1.9,0.5-2.6,1.4l0.2-1.1H6.2
		L3.9,14.8h2.6L8,7.7c0.3-1.4,0.7-2.1,1.6-2.1c0.8,0,1,0.6,0.7,1.8l-1.5,7.5h2.5l1.8-8.8C13.4,4.3,12.7,3.4,11.1,3.4z M16.2,10.7
		l1-5.1h1.1l0.4-1.9h-1.1l0.6-3h-2.6l-0.6,3h-1l-0.4,1.9h1l-1.4,6.7c-0.4,1.9-0.2,2.6,1.7,2.6c0.3,0,0.8,0,1.4-0.1l0.4-2
		c-0.1,0-0.2,0-0.3,0c-0.7,0-0.7-0.4-0.5-1.4L16.2,10.7z M20.5,9.6h5.1l0.2-0.8c0.4-1.9,0.6-3.2,0.1-4.1c-0.5-0.8-1.4-1.3-2.8-1.3
		c-1.4,0-2.5,0.4-3.3,1.2c-1,0.9-1.3,2.3-1.7,4.3c-0.5,2.4-0.8,4-0.1,5.2c0.5,0.8,1.3,1.1,2.7,1.1c2.6,0,4-1.1,4.5-3.7
		c0-0.1,0-0.3,0.1-0.4h-2.4c-0.3,1.5-0.8,2.2-1.7,2.2c-1,0-1.1-0.9-0.7-2.9C20.4,10.1,20.5,9.8,20.5,9.6z M20.9,7.4
		c0.3-1.4,0.7-2,1.7-2c1,0,1.1,0.6,0.9,2l-0.1,0.5h-2.5C20.9,7.6,20.9,7.4,20.9,7.4z M30,5.5l0.4-1.8h-2.5l-2.3,11.1h2.6l1.3-6.5
		c0.2-1.1,1-1.8,2.2-1.8c0.2,0,0.4,0,0.6,0l0.6-3.1C31.8,3.4,31,4.1,30,5.5z"/>
	<path fill="#ED1C24" d="M47.8,3.4c-1.1,0-2,0.4-2.8,1.4c-0.2-0.8-0.9-1.4-2-1.4c-1.4,0-2.2,0.5-3,1.6l0.3-1.3h-2.4l-2.3,11.1h2.5
		l1.5-7.3c0.3-1.3,0.7-1.9,1.7-1.9c1,0,1.1,0.6,0.8,2l-1.5,7.2h2.5l1.5-7.2c0.3-1.4,0.6-2,1.7-2c1.1,0,1.1,0.6,0.8,2.1l-1.4,7.1h2.5
		l1.7-8.6C50.3,4.4,49.5,3.4,47.8,3.4z M55,3.4c-3.2,0-4.3,1.7-5.1,5.9c-0.8,4.1-0.4,5.9,2.7,5.9c3.2,0,4.3-1.7,5.1-5.9
		C58.6,5.1,58.2,3.4,55,3.4z M55.2,8.7L55,9.8c-0.5,2.4-0.7,3.4-2,3.4c-1.2,0-1.1-1-0.5-3.8l0-0.3l0.2-0.8c0.4-2,0.7-3,1.9-3
		C55.9,5.4,55.7,6.4,55.2,8.7z M61.2,10.7l1-5.1h1.1l0.4-1.9h-1.1l0.6-3h-2.6l-0.6,3h-1l-0.4,1.9h1l-1.4,6.7
		c-0.4,1.9-0.2,2.6,1.7,2.6c0.3,0,0.8,0,1.4-0.1l0.4-2c-0.1,0-0.2,0-0.3,0c-0.7,0-0.7-0.4-0.5-1.4L61.2,10.7z M68,3.4
		c-3.2,0-4.3,1.7-5.1,5.9c-0.8,4.1-0.4,5.9,2.7,5.9c3.2,0,4.3-1.7,5.1-5.9C71.6,5.1,71.2,3.4,68,3.4z M68.2,8.7L68,9.8
		c-0.5,2.4-0.7,3.4-2,3.4c-1.2,0-1.1-1-0.5-3.8l0.1-0.3l0.2-0.8c0.4-2,0.7-3,1.9-3C68.8,5.4,68.7,6.4,68.2,8.7z M77.3,6.5L78,3.4
		c-1.2,0-2.1,0.7-3,2.1l0.4-1.8h-2.5l-2.3,11.1h2.6l1.3-6.5c0.2-1.1,1-1.8,2.2-1.8C76.8,6.5,77.1,6.5,77.3,6.5z M81.9,3.4
		c-2.3,0-3.8,1.1-4.2,3c-0.4,1.9,0.6,2.6,2.2,3.9c0.9,0.7,1.5,1,1.4,1.8c-0.1,0.7-0.7,1.1-1.4,1.1c-0.9,0-1.2-0.5-0.9-1.8l0.1-0.3
		h-2.3c0,0.2-0.1,0.3-0.1,0.4c-0.5,2.5,0.4,3.6,2.9,3.6c2.4,0,3.9-1.2,4.3-3.1c0.4-2.1-0.8-2.8-2.6-4.1c-0.8-0.6-1.2-1-1.1-1.7
		c0.1-0.6,0.6-1,1.3-1c0.9,0,1.2,0.5,1,1.6l0,0.2h2.3l0-0.2C85.1,4.5,84.2,3.4,81.9,3.4z"/>
	<path fill="#FFFFFF" d="M18.6,17c-0.2,0-0.3,0-0.5,0.1c-0.1,0.1-0.2,0.2-0.3,0.3l0,0h3.2l0.1-0.5l-0.6,0L18.6,17z M17.6,18.5
		L17.5,19H18l0.1-0.5l0.1-0.2h2.7l0.1-0.5h-3.2L17.6,18.5z M23.2,17l-0.5,0.5h0.6l0.1,0.2h-1L21.4,19h0.5l0.8-0.8h1l0.4,0.8h0.5
		l-0.9-2H23.2z M34.3,19h0.5l0.1-0.5h-0.5L34.3,19z M32.1,17l-1.9,0h-0.6l-0.1,0.5h2.7l-0.1,0.2h-2.7l-0.2,0.7L29.1,19h0.5l0.1-0.5
		l0.1-0.2h1.5l0.5,0.8h0.6l-0.5-0.8c0.2,0,0.4,0,0.5-0.1c0.1-0.1,0.2-0.2,0.2-0.4l0.1-0.2c0-0.2,0-0.3-0.1-0.4
		C32.4,17.1,32.3,17,32.1,17z M36,17.6l-0.1,0.2h-2.2l0.1-0.2l0.1-0.5h-0.5l-0.1,0.5l-0.1,0.2c0,0.2,0,0.3,0.1,0.4
		c0.1,0.1,0.2,0.1,0.5,0.1h1.9c0.2,0,0.4,0,0.5-0.1c0.1-0.1,0.2-0.2,0.2-0.4l0.1-0.2l0.1-0.5h-0.5L36,17.6z M28.3,17l-1.9,0h-0.6
		l-0.1,0.5h2.7l-0.1,0.2h-2.7L25.2,19h2.6c0.2,0,0.4,0,0.5-0.1c0.1-0.1,0.2-0.2,0.3-0.4l0.1-0.2c0-0.1-0.1-0.2-0.3-0.2
		c0.2,0,0.4-0.1,0.4-0.3l0.1-0.2c0-0.2,0-0.3-0.1-0.4C28.6,17.1,28.4,17,28.3,17z M28,18.5h-2.2l0.1-0.2h2.2L28,18.5z M37.3,17
		l-0.1,0.5l-0.1,0.2L36.8,19h0.5l0.1-0.5l0.3-1.4H37.3z M39.9,17l-0.8,0.8h-1.3l-0.1,0.5H39l0.5,0.8H40l-0.6-1l1.1-1H39.9z M42.5,17
		L42,17.6h0.6l0.1,0.2h-1L40.7,19h0.5l0.8-0.8h1l0.4,0.8h0.5L43,17H42.5z M48.6,17l-0.5,0.5h0.6l0.1,0.2h-1L46.8,19h0.5l0.8-0.8h1
		l0.4,0.8H50l-0.9-2H48.6z M65.3,17l-1.9,0h-0.6l-0.1,0.5L62.3,19h0.5l0.1-0.5l0.1-0.3l0.1-0.6h1.8c0.1,0,0.2,0,0.3,0.1
		c0.1,0.1,0.1,0.1,0.1,0.2l-0.1,0.4L65,19h0.5l0.1-0.5l0.2-1c0-0.1,0-0.3-0.1-0.3C65.6,17.1,65.5,17,65.3,17z M53.7,17l-1.9,0h-0.6
		L51,17.6h2.3c0.1,0,0.2,0,0.3,0.1c0.1,0.1,0.1,0.1,0.1,0.2l-0.1,0.4c0,0.1-0.1,0.1-0.2,0.2c-0.1,0.1-0.2,0.1-0.3,0.1h-1.8l0.1-0.3
		l0.1-0.4H51L50.7,19h2.6c0.2,0,0.3,0,0.5-0.1c0.1-0.1,0.2-0.2,0.3-0.3l0.2-1c0-0.1,0-0.3-0.1-0.3C54,17.1,53.9,17,53.7,17z
		 M59.5,17c-0.2,0-0.3,0-0.5,0.1c-0.1,0.1-0.2,0.2-0.3,0.3l0,0H62l0.1-0.5l-0.6,0L59.5,17z M58.5,18.5c0,0.1,0,0.3,0.1,0.4
		C58.7,19,58.9,19,59,19h2.6l0.1-0.5H59l0.1-0.2h2.7l0.1-0.5h-3.2L58.5,18.5z M57.6,17l-1.9,0H55l-0.1,0.5h2.7l-0.1,0.2h-2.7
		l-0.2,0.7L54.5,19h0.5l0.1-0.5l0.1-0.2h1.5l0.5,0.8h0.6l-0.5-0.8c0.2,0,0.4,0,0.5-0.1S58,18,58,17.8l0.1-0.2c0-0.2,0-0.3-0.1-0.4
		C57.9,17.1,57.8,17,57.6,17z M67.9,17l-0.5,0.5h0.6l0.1,0.2h-1L66.1,19h0.5l0.8-0.8h1l0.4,0.8h0.5l-0.9-2H67.9z M70.7,18.4
		c-0.1-0.1-0.1-0.1-0.1-0.2l0.1-0.4l0.2-0.8h-0.5l-0.1,0.5l-0.2,1c0,0.1,0,0.3,0.1,0.3c0.1,0.1,0.2,0.1,0.4,0.1h2.6l0.1-0.5H71
		C70.9,18.5,70.8,18.5,70.7,18.4z M73.8,19h0.5l0.2-0.8l0.1-0.4h-0.5L73.8,19z M74.2,17.6h0.5l0.1-0.5h-0.5L74.2,17.6z M82,17
		l-0.1,0.5l-0.1,0.2h-2.2l0.1-0.2l0.1-0.5h-0.5l-0.1,0.5l-0.1,0.2c0,0.2,0,0.3,0.1,0.4c0.1,0.1,0.2,0.1,0.5,0.1h1.9
		c0.2,0,0.4,0,0.5-0.1c0.1-0.1,0.2-0.2,0.2-0.4l0.1-0.2l0.1-0.5H82z M78,17l-1.9,0h-0.6l-0.1,0.5L75,19h0.5l0.1-0.5l0.1-0.3l0.1-0.6
		h1.8c0.1,0,0.2,0,0.3,0.1c0.1,0.1,0.1,0.1,0.1,0.2l-0.1,0.4L77.7,19h0.5l0.1-0.5l0.2-1c0-0.1,0-0.3-0.1-0.3
		C78.3,17.1,78.2,17,78,17z M80.2,19h0.5l0.1-0.5h-0.5L80.2,19z"/>
</g>
</svg>
